# 3ds Max Wavefront OBJ Exporter v0.97b - (c)2007 guruware
# File Created: 20.11.2013 11:24:30

#
# object Pillar_marble
#

v  35.0000 0.0000 35.0000
v  -35.0000 0.0000 35.0000
v  -35.0000 0.0000 -35.0000
v  35.0000 0.0000 -35.0000
v  -35.0000 300.0000 -35.0000
v  -35.0000 300.0000 35.0000
v  35.0000 300.0000 35.0000
v  35.0000 300.0000 -35.0000
# 8 vertices

vn 0.0000 -1.0000 -0.0000
vn 0.0000 1.0000 -0.0000
vn 0.0000 0.0000 1.0000
vn 1.0000 0.0000 -0.0000
vn 0.0000 0.0000 -1.0000
vn -1.0000 0.0000 -0.0000
# 6 vertex normals

vt 0.9929 0.9090 0.0000
vt 0.9363 0.9090 0.0000
vt 0.9363 0.8524 0.0000
vt 0.9929 0.8524 0.0000
vt 0.9363 0.9802 0.0000
vt 0.9363 0.9236 0.0000
vt 0.9929 0.9236 0.0000
vt 0.9929 0.9802 0.0000
vt 0.4722 0.0136 0.0000
vt 0.4722 0.9864 0.0000
vt 0.2452 0.9864 0.0000
vt 0.2452 0.0136 0.0000
vt 0.0182 0.9864 0.0000
vt 0.0182 0.0136 0.0000
vt 0.9262 0.0136 0.0000
vt 0.9262 0.9864 0.0000
vt 0.6992 0.9864 0.0000
vt 0.6992 0.0136 0.0000
# 18 texture coords

g Pillar_marble
s 2
f 1/1/1 2/2/1 3/3/1 4/4/1 
s 4
f 5/5/2 6/6/2 7/7/2 8/8/2 
s 8
f 6/9/3 2/10/3 1/11/3 7/12/3 
s 16
f 7/12/4 1/11/4 4/13/4 8/14/4 
s 32
f 8/15/5 4/16/5 3/17/5 5/18/5 
s 64
f 5/18/6 3/17/6 2/10/6 6/9/6 
# 6 polygons

