# 3ds Max Wavefront OBJ Exporter v0.97b - (c)2007 guruware
# File Created: 20.11.2013 10:17:34

#
# object Pillar_concrete
#

v  10.5000 0.0000 12.5000
v  10.5000 250.0000 12.5000
v  -10.5000 250.0000 12.5000
v  -10.5000 0.0000 12.5000
v  -12.5000 250.0000 10.5000
v  -12.5000 250.0000 -10.5000
v  -12.5000 0.0000 -10.5000
v  -12.5000 0.0000 10.5000
v  -2.9318 0.0000 21.3521
v  2.9318 0.0000 21.3521
v  2.6435 1.0208 21.1101
v  -2.6435 1.0208 21.1101
v  21.4263 0.0000 2.9236
v  21.4263 0.0000 -2.9236
v  21.1101 1.0208 -2.6522
v  21.1101 1.0208 2.6522
v  2.9318 0.0000 -21.3521
v  -2.9318 0.0000 -21.3521
v  -2.6435 1.0208 -21.1101
v  2.6435 1.0208 -21.1101
v  -21.4263 0.0000 -2.9236
v  -21.4263 0.0000 2.9236
v  -21.1101 1.0208 2.6522
v  -21.1101 1.0208 -2.6522
v  5.3053 9.1863 14.0000
v  6.2292 10.2083 12.5000
v  -6.2292 10.2083 12.5000
v  -5.3053 9.1863 14.0000
v  -5.3053 1.3615 14.0000
v  -6.2292 0.0000 12.5000
v  14.0000 9.1863 -5.3053
v  12.5000 10.2083 -6.2292
v  12.5000 10.2083 6.2292
v  14.0000 9.1863 5.3053
v  14.0000 1.3615 5.3053
v  12.5000 0.0000 6.2292
v  -5.3053 9.1863 -14.0000
v  -6.2292 10.2083 -12.5000
v  6.2292 10.2083 -12.5000
v  5.3053 9.1863 -14.0000
v  5.3053 1.3615 -14.0000
v  6.2292 0.0000 -12.5000
v  -14.0000 9.1863 5.3053
v  -12.5000 10.2083 6.2292
v  -12.5000 10.2083 -6.2292
v  -14.0000 9.1863 -5.3053
v  -14.0000 1.3615 -5.3053
v  -12.5000 0.0000 -6.2292
v  5.3053 1.3615 14.0000
v  14.0000 1.3615 -5.3053
v  -5.3053 1.3615 -14.0000
v  -14.0000 1.3615 5.3053
v  6.2292 0.0000 12.5000
v  12.5000 0.0000 -6.2292
v  -6.2292 0.0000 -12.5000
v  -12.5000 0.0000 6.2292
v  12.5000 0.0000 10.5000
v  12.5000 250.0000 10.5000
v  -10.5000 250.0000 -12.5000
v  -10.5000 0.0000 -12.5000
v  12.5000 250.0000 -10.5000
v  12.5000 0.0000 -10.5000
v  10.5000 250.0000 -12.5000
v  10.5000 0.0000 -12.5000
v  -2.9318 250.0000 -21.3521
v  2.9318 250.0000 -21.3521
v  2.6435 248.9792 -21.1101
v  -2.6435 248.9792 -21.1101
v  21.4263 250.0000 -2.9236
v  21.4263 250.0000 2.9236
v  21.1101 248.9792 2.6522
v  21.1101 248.9792 -2.6522
v  2.9318 250.0000 21.3521
v  -2.9318 250.0000 21.3521
v  -2.6435 248.9792 21.1101
v  2.6435 248.9792 21.1101
v  -21.4263 250.0000 2.9236
v  -21.4263 250.0000 -2.9236
v  -21.1101 248.9792 -2.6522
v  -21.1101 248.9792 2.6522
v  5.3053 240.8137 -14.0000
v  6.2292 239.7917 -12.5000
v  -6.2292 239.7917 -12.5000
v  -5.3053 240.8137 -14.0000
v  -5.3053 248.6385 -14.0000
v  -6.2292 250.0000 -12.5000
v  14.0000 240.8137 5.3053
v  12.5000 239.7917 6.2292
v  12.5000 239.7917 -6.2292
v  14.0000 240.8137 -5.3053
v  14.0000 248.6385 -5.3053
v  12.5000 250.0000 -6.2292
v  -5.3053 240.8137 14.0000
v  -6.2292 239.7917 12.5000
v  6.2292 239.7917 12.5000
v  5.3053 240.8137 14.0000
v  5.3053 248.6385 14.0000
v  6.2292 250.0000 12.5000
v  -14.0000 240.8137 -5.3053
v  -12.5000 239.7917 -6.2292
v  -12.5000 239.7917 6.2292
v  -14.0000 240.8137 5.3053
v  -14.0000 248.6385 5.3053
v  -12.5000 250.0000 6.2292
v  5.3053 248.6385 -14.0000
v  14.0000 248.6385 5.3053
v  -5.3053 248.6385 14.0000
v  -14.0000 248.6385 -5.3053
v  6.2292 250.0000 -12.5000
v  12.5000 250.0000 6.2292
v  -6.2292 250.0000 12.5000
v  -12.5000 250.0000 -6.2292
# 112 vertices

vn 0.3827 0.0000 0.9239
vn -0.3827 0.0000 0.9239
vn -0.9239 0.0000 0.3827
vn -0.9239 0.0000 -0.3827
vn -0.5547 0.3304 0.7636
vn 0.5585 0.3374 0.7578
vn 0.3743 0.7080 0.5989
vn -0.3687 0.7089 0.6013
vn 0.7602 0.3697 0.5342
vn 0.7541 0.3766 -0.5380
vn 0.5755 0.7251 -0.3782
vn 0.5782 0.7262 0.3719
vn 0.5547 0.3304 -0.7636
vn -0.5585 0.3374 -0.7578
vn -0.3743 0.7080 -0.5989
vn 0.3687 0.7089 -0.6013
vn -0.7602 0.3697 -0.5342
vn -0.7541 0.3766 0.5380
vn -0.5755 0.7251 0.3782
vn -0.5782 0.7262 -0.3719
vn 0.3931 0.3715 0.8411
vn 0.5154 0.5265 0.6762
vn -0.5154 0.5265 0.6762
vn -0.3931 0.3715 0.8411
vn -0.7110 0.3151 0.6287
vn -0.8866 0.1055 0.4503
vn 0.8411 0.3715 -0.3931
vn 0.6762 0.5265 -0.5154
vn 0.6762 0.5265 0.5154
vn 0.8411 0.3715 0.3931
vn 0.6280 0.3164 0.7110
vn 0.4496 0.1065 0.8869
vn -0.3931 0.3715 -0.8411
vn -0.5154 0.5265 -0.6762
vn 0.5154 0.5265 -0.6762
vn 0.3931 0.3715 -0.8411
vn 0.7110 0.3151 -0.6287
vn 0.8866 0.1055 -0.4503
vn -0.8411 0.3715 0.3931
vn -0.6762 0.5265 0.5154
vn -0.6762 0.5265 -0.5154
vn -0.8411 0.3715 -0.3931
vn -0.6280 0.3164 -0.7110
vn -0.4496 0.1065 -0.8869
vn 0.7106 0.3068 0.6332
vn 0.6328 0.3075 -0.7107
vn -0.7106 0.3068 -0.6332
vn -0.6328 0.3075 0.7107
vn 0.8846 0.1066 0.4541
vn 0.4536 0.1077 -0.8847
vn -0.8846 0.1066 -0.4541
vn -0.4536 0.1077 0.8847
vn 0.9239 0.0000 0.3827
vn -0.3827 0.0000 -0.9239
vn 0.9239 0.0000 -0.3827
vn 0.3827 0.0000 -0.9239
vn -0.5547 -0.3304 -0.7636
vn 0.5585 -0.3374 -0.7578
vn 0.3743 -0.7080 -0.5989
vn -0.3687 -0.7089 -0.6013
vn 0.7602 -0.3697 -0.5342
vn 0.7541 -0.3767 0.5380
vn 0.5755 -0.7251 0.3782
vn 0.5782 -0.7262 -0.3719
vn 0.5547 -0.3304 0.7636
vn -0.5585 -0.3374 0.7578
vn -0.3743 -0.7080 0.5989
vn 0.3687 -0.7089 0.6013
vn -0.7602 -0.3697 0.5342
vn -0.7541 -0.3767 -0.5380
vn -0.5755 -0.7251 -0.3782
vn -0.5782 -0.7262 0.3719
vn 0.3931 -0.3715 -0.8411
vn 0.5154 -0.5265 -0.6762
vn -0.5154 -0.5265 -0.6762
vn -0.3931 -0.3715 -0.8411
vn -0.7110 -0.3151 -0.6287
vn -0.8866 -0.1055 -0.4503
vn 0.8411 -0.3715 0.3931
vn 0.6762 -0.5265 0.5154
vn 0.6762 -0.5265 -0.5154
vn 0.8411 -0.3715 -0.3931
vn 0.6280 -0.3164 -0.7110
vn 0.4496 -0.1065 -0.8869
vn -0.3931 -0.3715 0.8411
vn -0.5154 -0.5265 0.6762
vn 0.5154 -0.5265 0.6762
vn 0.3931 -0.3715 0.8411
vn 0.7110 -0.3151 0.6287
vn 0.8866 -0.1055 0.4503
vn -0.8411 -0.3715 -0.3931
vn -0.6762 -0.5265 -0.5154
vn -0.6762 -0.5265 0.5154
vn -0.8411 -0.3715 0.3931
vn -0.6280 -0.3164 0.7110
vn -0.4496 -0.1065 0.8869
vn 0.7106 -0.3068 -0.6332
vn 0.6328 -0.3075 0.7107
vn -0.7106 -0.3068 0.6332
vn -0.6328 -0.3075 -0.7107
vn 0.8846 -0.1066 -0.4541
vn 0.4536 -0.1077 0.8847
vn -0.8846 -0.1066 0.4541
vn -0.4536 -0.1077 -0.8847
# 104 vertex normals

vt 0.6043 0.0096 0.6530
vt 0.6043 0.9878 0.6530
vt 0.4294 0.9878 0.6530
vt 0.4294 0.0096 0.6530
vt 0.4059 0.9878 0.6530
vt 0.2310 0.9878 0.6530
vt 0.2310 0.0096 0.6530
vt 0.4059 0.0096 0.6530
vt 0.8845 0.5325 0.0000
vt 0.9333 0.5325 0.0000
vt 0.9304 0.5366 0.0000
vt 0.8874 0.5366 0.0000
vt 0.8768 0.8944 0.0000
vt 0.9255 0.8944 0.0000
vt 0.9227 0.8986 0.0000
vt 0.8796 0.8986 0.0000
vt 0.8832 0.7891 0.0000
vt 0.9320 0.7891 0.0000
vt 0.9291 0.7932 0.0000
vt 0.8862 0.7932 0.0000
vt 0.8847 0.6505 0.0000
vt 0.9334 0.6505 0.0000
vt 0.9306 0.6547 0.0000
vt 0.8875 0.6547 0.0000
vt 0.9519 0.5967 0.0000
vt 0.9621 0.6028 0.0000
vt 0.8557 0.6028 0.0000
vt 0.8659 0.5967 0.0000
vt 0.8637 0.5653 0.0000
vt 0.8465 0.5648 0.0000
vt 0.9448 0.9591 0.0000
vt 0.9530 0.9662 0.0000
vt 0.8493 0.9662 0.0000
vt 0.8575 0.9591 0.0000
vt 0.8559 0.9273 0.0000
vt 0.8444 0.9641 0.0000
vt 0.8388 0.9266 0.0000
vt 0.9513 0.8537 0.0000
vt 0.9595 0.8608 0.0000
vt 0.8557 0.8608 0.0000
vt 0.8639 0.8537 0.0000
vt 0.8624 0.8220 0.0000
vt 0.8508 0.8587 0.0000
vt 0.8452 0.8212 0.0000
vt 0.9521 0.7148 0.0000
vt 0.9623 0.7208 0.0000
vt 0.8558 0.7208 0.0000
vt 0.8660 0.7148 0.0000
vt 0.8638 0.6833 0.0000
vt 0.8466 0.6828 0.0000
vt 0.9541 0.5653 0.0000
vt 0.9464 0.9273 0.0000
vt 0.9528 0.8220 0.0000
vt 0.9543 0.6833 0.0000
vt 0.9370 0.5339 0.0000
vt 0.9714 0.5648 0.0000
vt 0.8809 0.5339 0.0000
vt 0.9289 0.8956 0.0000
vt 0.9636 0.9266 0.0000
vt 0.8734 0.8956 0.0000
vt 0.9355 0.7905 0.0000
vt 0.9700 0.8212 0.0000
vt 0.8797 0.7905 0.0000
vt 0.9369 0.6517 0.0000
vt 0.9715 0.6828 0.0000
vt 0.8812 0.6517 0.0000
vt 0.9580 0.9641 0.0000
vt 0.9644 0.8587 0.0000
vt 0.6279 0.0096 0.6530
vt 0.6279 0.9878 0.6530
vt 0.2074 0.9878 0.6530
vt 0.2074 0.0096 0.6530
vt 0.8027 0.9878 0.6530
vt 0.8027 0.0096 0.6530
vt 0.0325 0.9878 0.6530
vt 0.0325 0.0096 0.6530
vt 0.0090 0.9878 0.6530
vt 0.0090 0.0096 0.6530
vt 0.8845 0.0469 0.0000
vt 0.9333 0.0469 0.0000
vt 0.9304 0.0510 0.0000
vt 0.8874 0.0510 0.0000
vt 0.8768 0.4088 0.0000
vt 0.9255 0.4088 0.0000
vt 0.9227 0.4130 0.0000
vt 0.8796 0.4130 0.0000
vt 0.8832 0.3035 0.0000
vt 0.9320 0.3035 0.0000
vt 0.9291 0.3076 0.0000
vt 0.8862 0.3076 0.0000
vt 0.8847 0.1649 0.0000
vt 0.9334 0.1649 0.0000
vt 0.9306 0.1691 0.0000
vt 0.8875 0.1691 0.0000
vt 0.9519 0.1111 0.0000
vt 0.9621 0.1172 0.0000
vt 0.8557 0.1172 0.0000
vt 0.8659 0.1111 0.0000
vt 0.8637 0.0797 0.0000
vt 0.8465 0.0792 0.0000
vt 0.9448 0.4735 0.0000
vt 0.9530 0.4806 0.0000
vt 0.8493 0.4806 0.0000
vt 0.8575 0.4735 0.0000
vt 0.8559 0.4417 0.0000
vt 0.8444 0.4785 0.0000
vt 0.8388 0.4410 0.0000
vt 0.9513 0.3681 0.0000
vt 0.9595 0.3752 0.0000
vt 0.8557 0.3752 0.0000
vt 0.8639 0.3681 0.0000
vt 0.8624 0.3364 0.0000
vt 0.8508 0.3731 0.0000
vt 0.8452 0.3356 0.0000
vt 0.9521 0.2292 0.0000
vt 0.9623 0.2352 0.0000
vt 0.8558 0.2352 0.0000
vt 0.8660 0.2292 0.0000
vt 0.8638 0.1977 0.0000
vt 0.8466 0.1972 0.0000
vt 0.9541 0.0797 0.0000
vt 0.9464 0.4417 0.0000
vt 0.9528 0.3364 0.0000
vt 0.9543 0.1977 0.0000
vt 0.9370 0.0483 0.0000
vt 0.9714 0.0792 0.0000
vt 0.8809 0.0483 0.0000
vt 0.9289 0.4100 0.0000
vt 0.9636 0.4410 0.0000
vt 0.8734 0.4100 0.0000
vt 0.9355 0.3049 0.0000
vt 0.9700 0.3356 0.0000
vt 0.8797 0.3049 0.0000
vt 0.9369 0.1661 0.0000
vt 0.9715 0.1972 0.0000
vt 0.8812 0.1661 0.0000
vt 0.9580 0.4785 0.0000
vt 0.9644 0.3731 0.0000
# 138 texture coords

g Pillar_concrete
s 1
f 1/1/1 2/2/1 3/3/2 4/4/2 
f 5/5/3 6/6/4 7/7/4 8/8/3 
s 2
f 9/9/5 10/10/6 11/11/7 12/12/8 
f 13/13/9 14/14/10 15/15/11 16/16/12 
f 17/17/13 18/18/14 19/19/15 20/20/16 
f 21/21/17 22/22/18 23/23/19 24/24/20 
f 25/25/21 26/26/22 27/27/23 28/28/24 
f 29/29/25 28/28/24 27/27/23 30/30/26 
f 31/31/27 32/32/28 33/33/29 34/34/30 
f 35/35/31 34/34/30 33/36/29 36/37/32 
f 37/38/33 38/39/34 39/40/35 40/41/36 
f 41/42/37 40/41/36 39/43/35 42/44/38 
f 43/45/39 44/46/40 45/47/41 46/48/42 
f 47/49/43 46/48/42 45/47/41 48/50/44 
f 49/51/45 25/25/21 28/28/24 29/29/25 
f 50/52/46 31/31/27 34/34/30 35/35/31 
f 51/53/47 37/38/33 40/41/36 41/42/37 
f 52/54/48 43/45/39 46/48/42 47/49/43 
f 10/55/6 53/56/49 49/51/45 11/11/7 
f 11/11/7 49/51/45 29/29/25 12/12/8 
f 9/57/5 12/12/8 29/29/25 30/30/26 
f 14/58/10 54/59/50 50/52/46 15/15/11 
f 15/15/11 50/52/46 35/35/31 16/16/12 
f 13/60/9 16/16/12 35/35/31 36/37/32 
f 18/61/14 55/62/51 51/53/47 19/19/15 
f 19/19/15 51/53/47 41/42/37 20/20/16 
f 17/63/13 20/20/16 41/42/37 42/44/38 
f 22/64/18 56/65/52 52/54/48 23/23/19 
f 23/23/19 52/54/48 47/49/43 24/24/20 
f 21/66/17 24/24/20 47/49/43 48/50/44 
f 49/51/45 53/56/49 26/26/22 25/25/21 
f 50/52/46 54/59/50 32/67/28 31/31/27 
f 51/53/47 55/62/51 38/68/34 37/38/33 
f 52/54/48 56/65/52 44/46/40 43/45/39 
s 1
f 4/4/2 3/3/2 5/5/3 8/8/3 
f 57/69/53 58/70/53 2/2/1 1/1/1 
f 7/7/4 6/6/4 59/71/54 60/72/54 
f 61/73/55 58/70/53 57/69/53 62/74/55 
f 60/72/54 59/71/54 63/75/56 64/76/56 
f 63/75/56 61/77/55 62/78/55 64/76/56 
s 2
f 65/79/57 66/80/58 67/81/59 68/82/60 
f 69/83/61 70/84/62 71/85/63 72/86/64 
f 73/87/65 74/88/66 75/89/67 76/90/68 
f 77/91/69 78/92/70 79/93/71 80/94/72 
f 81/95/73 82/96/74 83/97/75 84/98/76 
f 85/99/77 84/98/76 83/97/75 86/100/78 
f 87/101/79 88/102/80 89/103/81 90/104/82 
f 91/105/83 90/104/82 89/106/81 92/107/84 
f 93/108/85 94/109/86 95/110/87 96/111/88 
f 97/112/89 96/111/88 95/113/87 98/114/90 
f 99/115/91 100/116/92 101/117/93 102/118/94 
f 103/119/95 102/118/94 101/117/93 104/120/96 
f 105/121/97 81/95/73 84/98/76 85/99/77 
f 106/122/98 87/101/79 90/104/82 91/105/83 
f 107/123/99 93/108/85 96/111/88 97/112/89 
f 108/124/100 99/115/91 102/118/94 103/119/95 
f 66/125/58 109/126/101 105/121/97 67/81/59 
f 67/81/59 105/121/97 85/99/77 68/82/60 
f 65/127/57 68/82/60 85/99/77 86/100/78 
f 70/128/62 110/129/102 106/122/98 71/85/63 
f 71/85/63 106/122/98 91/105/83 72/86/64 
f 69/130/61 72/86/64 91/105/83 92/107/84 
f 74/131/66 111/132/103 107/123/99 75/89/67 
f 75/89/67 107/123/99 97/112/89 76/90/68 
f 73/133/65 76/90/68 97/112/89 98/114/90 
f 78/134/70 112/135/104 108/124/100 79/93/71 
f 79/93/71 108/124/100 103/119/95 80/94/72 
f 77/136/69 80/94/72 103/119/95 104/120/96 
f 105/121/97 109/126/101 82/96/74 81/95/73 
f 106/122/98 110/129/102 88/137/80 87/101/79 
f 107/123/99 111/132/103 94/138/86 93/108/85 
f 108/124/100 112/135/104 100/116/92 99/115/91 
# 72 polygons

#
# object Pillar_concrete_lod
#

v  -12.6768 250.0000 12.6768
v  -12.6768 0.0000 12.6768
v  12.6768 0.0000 12.6768
v  12.6768 250.0000 12.6768
v  -12.6768 0.0000 -12.6768
v  -12.6768 250.0000 -12.6768
v  -5.7673 9.6973 13.2500
v  -5.7673 0.6808 13.2500
v  5.7673 0.6808 13.2500
v  5.7673 9.6973 13.2500
v  13.2500 9.6973 5.7673
v  13.2500 0.6808 5.7673
v  13.2500 0.6808 -5.7673
v  13.2500 9.6973 -5.7673
v  5.7673 9.6973 -13.2500
v  5.7673 0.6808 -13.2500
v  -5.7673 0.6808 -13.2500
v  -5.7673 9.6973 -13.2500
v  -13.2500 9.6973 -5.7673
v  -13.2500 0.6808 -5.7673
v  -13.2500 0.6808 5.7673
v  -13.2500 9.6973 5.7673
v  -2.7877 0.1212 21.2311
v  2.7877 0.1212 21.2311
v  21.2682 0.1212 2.7879
v  21.2682 0.1212 -2.7879
v  2.7877 0.1212 -21.2311
v  -2.7877 0.1212 -21.2311
v  -21.2682 0.1212 -2.7879
v  -21.2682 0.1212 2.7879
v  12.6768 0.0000 -12.6768
v  12.6768 250.0000 -12.6768
v  -5.7673 240.3027 -13.2500
v  -5.7673 249.3192 -13.2500
v  5.7673 249.3192 -13.2500
v  5.7673 240.3027 -13.2500
v  13.2500 240.3027 -5.7673
v  13.2500 249.3192 -5.7673
v  13.2500 249.3192 5.7673
v  13.2500 240.3027 5.7673
v  5.7673 240.3027 13.2500
v  5.7673 249.3192 13.2500
v  -5.7673 249.3192 13.2500
v  -5.7673 240.3027 13.2500
v  -13.2500 240.3027 5.7673
v  -13.2500 249.3192 5.7673
v  -13.2500 249.3192 -5.7673
v  -13.2500 240.3027 -5.7673
v  -2.7877 249.8624 -21.2311
v  2.7877 249.8624 -21.2311
v  21.2682 249.8624 -2.7879
v  21.2682 249.8624 2.7879
v  2.7877 249.8624 21.2311
v  -2.7877 249.8624 21.2311
v  -21.2682 249.8624 2.7879
v  -21.2682 249.8624 -2.7879
# 56 vertices

vn -0.7071 0.0000 0.7071
vn 0.7071 0.0000 0.7071
vn -0.7071 0.0000 -0.7071
vn 0.0000 0.0000 1.0000
vn 0.0000 0.5905 0.8071
vn 1.0000 0.0000 -0.0000
vn 0.8067 0.5910 -0.0000
vn 0.0000 0.0000 -1.0000
vn 0.0000 0.5905 -0.8071
vn -1.0000 0.0000 -0.0000
vn -0.8067 0.5910 -0.0000
vn 0.0000 0.9976 0.0699
vn 0.0696 0.9976 -0.0000
vn 0.0000 0.9976 -0.0699
vn -0.0696 0.9976 -0.0000
vn 0.7071 0.0000 -0.7071
vn 0.0000 -0.5911 -0.8066
vn 0.8062 -0.5916 -0.0000
vn 0.0000 -0.5911 0.8066
vn -0.8062 -0.5916 -0.0000
vn 0.0000 -0.9977 -0.0679
vn 0.0676 -0.9977 -0.0000
vn 0.0000 -0.9977 0.0679
vn -0.0676 -0.9977 -0.0000
# 24 vertex normals

vt 0.4176 0.9878 0.6530
vt 0.4176 0.0096 0.6530
vt 0.6161 0.0096 0.6530
vt 0.6161 0.9878 0.6530
vt 0.2192 0.0096 0.6530
vt 0.2192 0.9878 0.6530
vt 0.8608 0.5998 0.0000
vt 0.8551 0.5651 0.0000
vt 0.9628 0.5651 0.0000
vt 0.9570 0.5998 0.0000
vt 0.8534 0.9627 0.0000
vt 0.8474 0.9269 0.0000
vt 0.9550 0.9269 0.0000
vt 0.9519 0.9631 0.0000
vt 0.8598 0.8572 0.0000
vt 0.8538 0.8216 0.0000
vt 0.9614 0.8216 0.0000
vt 0.9584 0.8577 0.0000
vt 0.8609 0.7178 0.0000
vt 0.8552 0.6831 0.0000
vt 0.9629 0.6831 0.0000
vt 0.9572 0.7178 0.0000
vt 0.8843 0.5343 0.0000
vt 0.9319 0.5346 0.0000
vt 0.8766 0.8962 0.0000
vt 0.9241 0.8965 0.0000
vt 0.8830 0.7909 0.0000
vt 0.9305 0.7911 0.0000
vt 0.8845 0.6523 0.0000
vt 0.9320 0.6526 0.0000
vt 0.8027 0.0096 0.6530
vt 0.8027 0.9878 0.6530
vt 0.0207 0.9878 0.6530
vt 0.0207 0.0096 0.6530
vt 0.8608 0.1142 0.0000
vt 0.8551 0.0794 0.0000
vt 0.9628 0.0794 0.0000
vt 0.9570 0.1142 0.0000
vt 0.8534 0.4771 0.0000
vt 0.8474 0.4414 0.0000
vt 0.9550 0.4414 0.0000
vt 0.9519 0.4775 0.0000
vt 0.8598 0.3716 0.0000
vt 0.8538 0.3360 0.0000
vt 0.9614 0.3360 0.0000
vt 0.9584 0.3721 0.0000
vt 0.8609 0.2322 0.0000
vt 0.8552 0.1974 0.0000
vt 0.9629 0.1974 0.0000
vt 0.9572 0.2322 0.0000
vt 0.8843 0.0487 0.0000
vt 0.9319 0.0490 0.0000
vt 0.8766 0.4106 0.0000
vt 0.9241 0.4109 0.0000
vt 0.8830 0.3053 0.0000
vt 0.9305 0.3055 0.0000
vt 0.8845 0.1667 0.0000
vt 0.9320 0.1670 0.0000
# 58 texture coords

g Pillar_concrete_lod
s 1
f 113/139/105 114/140/105 115/141/106 116/142/106 
f 117/143/107 114/140/105 113/139/105 118/144/107 
s 2
f 119/145/108 120/146/109 121/147/109 122/148/108 
f 123/149/110 124/150/111 125/151/111 126/152/110 
f 127/153/112 128/154/113 129/155/113 130/156/112 
f 131/157/114 132/158/115 133/159/115 134/160/114 
f 120/146/109 135/161/116 136/162/116 121/147/109 
f 124/150/111 137/163/117 138/164/117 125/151/111 
f 128/154/113 139/165/118 140/166/118 129/155/113 
f 132/158/115 141/167/119 142/168/119 133/159/115 
s 1
f 115/141/106 143/169/120 144/170/120 116/142/106 
f 144/171/120 143/172/120 117/143/107 118/144/107 
s 2
f 145/173/112 146/174/121 147/175/121 148/176/112 
f 149/177/110 150/178/122 151/179/122 152/180/110 
f 153/181/108 154/182/123 155/183/123 156/184/108 
f 157/185/114 158/186/124 159/187/124 160/188/114 
f 146/174/121 161/189/125 162/190/125 147/175/121 
f 150/178/122 163/191/126 164/192/126 151/179/122 
f 154/182/123 165/193/127 166/194/127 155/183/123 
f 158/186/124 167/195/128 168/196/128 159/187/124 
# 20 polygons

#
# object Pillar_concrete_collider
#

v  -13.0000 0.0000 13.0000
v  -13.0000 0.0000 -13.0000
v  13.0000 0.0000 -13.0000
v  13.0000 0.0000 13.0000
v  -13.0000 250.0000 13.0000
v  13.0000 250.0000 13.0000
v  13.0000 250.0000 -13.0000
v  -13.0000 250.0000 -13.0000
# 8 vertices

vn 0.0000 -1.0000 -0.0000
vn 0.0000 1.0000 -0.0000
vn 0.0000 0.0000 1.0000
vn 1.0000 0.0000 -0.0000
vn 0.0000 0.0000 -1.0000
vn -1.0000 0.0000 -0.0000
# 6 vertex normals

vt 1.0000 0.0000 0.0000
vt 1.0000 1.0000 0.0000
vt 0.0000 1.0000 0.0000
vt 0.0000 0.0000 0.0000
# 4 texture coords

g Pillar_concrete_collider
s 2
f 169/197/129 170/198/129 171/199/129 172/200/129 
s 4
f 173/200/130 174/197/130 175/198/130 176/199/130 
s 8
f 169/200/131 172/197/131 174/198/131 173/199/131 
s 16
f 172/200/132 171/197/132 175/198/132 174/199/132 
s 32
f 171/200/133 170/197/133 176/198/133 175/199/133 
s 64
f 170/200/134 169/197/134 173/198/134 176/199/134 
# 6 polygons

