# 3ds Max Wavefront OBJ Exporter v0.97b - (c)2007 guruware
# File Created: 20.11.2013 14:02:18

#
# object Pillar_wired
#

v  17.3205 300.0000 -10.0000
v  20.0000 300.0000 -0.0000
v  20.0000 0.0000 -0.0000
v  17.3205 0.0000 -10.0000
v  10.0000 300.0000 -17.3205
v  10.0000 0.0000 -17.3205
v  0.0000 300.0000 -20.0000
v  0.0000 0.0000 -20.0000
v  -10.0000 300.0000 -17.3205
v  -10.0000 0.0000 -17.3205
v  -17.3205 300.0000 -10.0000
v  -17.3205 0.0000 -10.0000
v  -20.0000 300.0000 -0.0000
v  -20.0000 0.0000 -0.0000
v  -17.3205 300.0000 10.0000
v  -17.3205 0.0000 10.0000
v  -10.0000 300.0000 17.3205
v  -10.0000 0.0000 17.3205
v  0.0000 300.0000 20.0000
v  0.0000 0.0000 20.0000
v  10.0000 300.0000 17.3205
v  10.0000 0.0000 17.3205
v  17.3205 300.0000 10.0000
v  17.3205 0.0000 10.0000
# 24 vertices

vn 0.8660 0.0000 -0.5000
vn 1.0000 0.0000 -0.0000
vn 0.5000 0.0000 -0.8660
vn 0.0000 0.0000 -1.0000
vn -0.5000 0.0000 -0.8660
vn -0.8660 0.0000 -0.5000
vn -1.0000 0.0000 -0.0000
vn -0.8660 0.0000 0.5000
vn -0.5000 0.0000 0.8660
vn 0.0000 0.0000 1.0000
vn 0.5000 0.0000 0.8660
vn 0.8660 0.0000 0.5000
vn 0.0000 -1.0000 -0.0000
vn 0.0000 1.0000 -0.0000
# 14 vertex normals

vt 0.6971 0.9931 1.0000
vt 0.6282 0.9931 1.0000
vt 0.6282 0.0067 1.0000
vt 0.6971 0.0067 1.0000
vt 0.7661 0.9931 1.0000
vt 0.7661 0.0067 1.0000
vt 0.8351 0.9931 1.0000
vt 0.8351 0.0067 1.0000
vt 0.0763 0.9931 1.0000
vt 0.0073 0.9931 1.0000
vt 0.0073 0.0067 1.0000
vt 0.0763 0.0067 1.0000
vt 0.1453 0.9931 1.0000
vt 0.1453 0.0067 1.0000
vt 0.2143 0.9931 1.0000
vt 0.2143 0.0067 1.0000
vt 0.2833 0.9931 1.0000
vt 0.2833 0.0067 1.0000
vt 0.3522 0.9931 1.0000
vt 0.3522 0.0067 1.0000
vt 0.4212 0.9931 1.0000
vt 0.4212 0.0067 1.0000
vt 0.4902 0.9931 1.0000
vt 0.4902 0.0067 1.0000
vt 0.5592 0.9931 1.0000
vt 0.5592 0.0067 1.0000
vt 0.8613 0.9605 -0.2500
vt 0.8584 0.9440 -0.2500
vt 0.8725 0.9290 -0.2500
vt 0.9000 0.9195 -0.2500
vt 0.9592 0.9014 0.2500
vt 0.9263 0.9057 0.2500
vt 0.9920 0.8733 0.2500
vt 0.9832 0.8895 0.2500
vt 0.9831 0.9386 -0.2500
vt 0.9335 0.9181 -0.2500
vt 0.9639 0.9251 -0.2500
vt 0.9444 0.9796 -0.2500
vt 0.8606 0.8733 0.2500
vt 0.8934 0.9014 0.2500
vt 0.8694 0.8895 0.2500
vt 0.9263 0.8408 0.2500
vt 0.9860 0.9551 -0.2500
vt 0.9719 0.9701 -0.2500
vt 0.9109 0.9811 -0.2500
vt 0.8805 0.9741 -0.2500
vt 0.8694 0.8570 0.2500
vt 0.8934 0.8452 0.2500
vt 0.9592 0.8452 0.2500
vt 0.9832 0.8570 0.2500
# 50 texture coords

g Pillar_wired
s 1
f 1/1/1 2/2/2 3/3/2 4/4/1 
f 5/5/3 1/1/1 4/4/1 6/6/3 
f 7/7/4 5/5/3 6/6/3 8/8/4 
f 9/9/5 7/10/4 8/11/4 10/12/5 
f 11/13/6 9/9/5 10/12/5 12/14/6 
f 13/15/7 11/13/6 12/14/6 14/16/7 
f 15/17/8 13/15/7 14/16/7 16/18/8 
f 17/19/9 15/17/8 16/18/8 18/20/9 
f 19/21/10 17/19/9 18/20/9 20/22/10 
f 21/23/11 19/21/10 20/22/10 22/24/11 
f 23/25/12 21/23/11 22/24/11 24/26/12 
f 2/2/2 23/25/12 24/26/12 3/3/2 
s 2
f 3/27/13 24/28/13 22/29/13 20/30/13 
f 23/31/14 2/32/14 19/33/14 21/34/14 
f 14/35/13 20/30/13 18/36/13 16/37/13 
f 3/27/13 20/30/13 14/35/13 8/38/13 
f 7/39/14 2/32/14 1/40/14 5/41/14 
f 13/42/14 19/33/14 2/32/14 7/39/14 
f 8/38/13 14/35/13 12/43/13 10/44/13 
f 3/27/13 8/38/13 6/45/13 4/46/13 
f 13/42/14 7/39/14 9/47/14 11/48/14 
f 19/33/14 13/42/14 15/49/14 17/50/14 
# 22 polygons

#
# object Pillar_wired_LOD
#

v  13.6602 300.0000 -13.6602
v  20.0000 300.0000 -0.0000
v  20.0000 0.0000 -0.0000
v  13.6602 0.0000 -13.6602
v  0.0000 300.0000 -20.0000
v  0.0000 0.0000 -20.0000
v  -13.6602 300.0000 -13.6602
v  -13.6602 0.0000 -13.6602
v  -20.0000 300.0000 -0.0000
v  -20.0000 0.0000 -0.0000
v  -13.6602 300.0000 13.6602
v  -13.6602 0.0000 13.6602
v  0.0000 300.0000 20.0000
v  0.0000 0.0000 20.0000
v  13.6602 300.0000 13.6602
v  13.6602 0.0000 13.6602
v  0.0000 0.0000 -0.0000
v  0.0000 300.0000 -0.0000
# 18 vertices

vn 0.7071 0.0000 -0.7071
vn 1.0000 0.0000 -0.0000
vn 0.0000 0.0000 -1.0000
vn -0.7071 0.0000 -0.7071
vn -1.0000 0.0000 -0.0000
vn -0.7071 0.0000 0.7071
vn 0.0000 0.0000 1.0000
vn 0.7071 0.0000 0.7071
vn 0.0000 -1.0000 -0.0000
vn 0.0000 1.0000 -0.0000
# 10 vertex normals

vt 0.7316 0.9931 1.0000
vt 0.6282 0.9931 1.0000
vt 0.6282 0.0067 1.0000
vt 0.7316 0.0067 1.0000
vt 0.8351 0.9931 1.0000
vt 0.8351 0.0067 1.0000
vt 0.1108 0.9931 1.0000
vt 0.0073 0.9931 1.0000
vt 0.0073 0.0067 1.0000
vt 0.1108 0.0067 1.0000
vt 0.2143 0.9931 1.0000
vt 0.2143 0.0067 1.0000
vt 0.3178 0.9931 1.0000
vt 0.3178 0.0067 1.0000
vt 0.4212 0.9931 1.0000
vt 0.4212 0.0067 1.0000
vt 0.5247 0.9931 1.0000
vt 0.5247 0.0067 1.0000
vt 0.9790 0.9626 -0.2500
vt 0.9444 0.9796 -0.2500
vt 0.9222 0.9496 -0.2500
vt 0.9831 0.9386 -0.2500
vt 0.8957 0.9776 -0.2500
vt 0.8613 0.9605 -0.2500
vt 0.8655 0.9365 -0.2500
vt 0.9000 0.9195 -0.2500
vt 0.9487 0.9216 -0.2500
vt 0.8814 0.8511 0.2500
vt 0.9263 0.8408 0.2500
vt 0.9263 0.8733 0.2500
vt 0.8606 0.8733 0.2500
vt 0.9712 0.8511 0.2500
vt 0.9920 0.8733 0.2500
vt 0.9712 0.8954 0.2500
vt 0.9263 0.9057 0.2500
vt 0.8814 0.8954 0.2500
# 36 texture coords

g Pillar_wired_LOD
s 1
f 25/51/15 26/52/16 27/53/16 28/54/15 
f 29/55/17 25/51/15 28/54/15 30/56/17 
f 31/57/18 29/58/17 30/59/17 32/60/18 
f 33/61/19 31/57/18 32/60/18 34/62/19 
f 35/63/20 33/61/19 34/62/19 36/64/20 
f 37/65/21 35/63/20 36/64/20 38/66/21 
f 39/67/22 37/65/21 38/66/21 40/68/22 
f 26/52/16 39/67/22 40/68/22 27/53/16 
s 2
f 32/69/23 30/70/23 41/71/23 34/72/23 
f 28/73/23 27/74/23 41/71/23 30/70/23 
f 40/75/23 38/76/23 41/71/23 27/74/23 
f 36/77/23 34/72/23 41/71/23 38/76/23 
f 31/78/24 33/79/24 42/80/24 29/81/24 
f 35/82/24 37/83/24 42/80/24 33/79/24 
f 39/84/24 26/85/24 42/80/24 37/83/24 
f 25/86/24 29/81/24 42/80/24 26/85/24 
# 16 polygons

#
# object Pillar_wired_collider
#

v  17.3205 300.0000 -10.0000
v  20.0000 300.0000 -0.0000
v  20.0000 0.0000 -0.0000
v  17.3205 0.0000 -10.0000
v  10.0000 300.0000 -17.3205
v  10.0000 0.0000 -17.3205
v  0.0000 300.0000 -20.0000
v  0.0000 0.0000 -20.0000
v  -10.0000 300.0000 -17.3205
v  -10.0000 0.0000 -17.3205
v  -17.3205 300.0000 -10.0000
v  -17.3205 0.0000 -10.0000
v  -20.0000 300.0000 -0.0000
v  -20.0000 0.0000 -0.0000
v  -17.3205 300.0000 10.0000
v  -17.3205 0.0000 10.0000
v  -10.0000 300.0000 17.3205
v  -10.0000 0.0000 17.3205
v  0.0000 300.0000 20.0000
v  0.0000 0.0000 20.0000
v  10.0000 300.0000 17.3205
v  10.0000 0.0000 17.3205
v  17.3205 300.0000 10.0000
v  17.3205 0.0000 10.0000
# 24 vertices

vn 0.8660 0.0000 -0.5000
vn 1.0000 0.0000 -0.0000
vn 0.5000 0.0000 -0.8660
vn 0.0000 0.0000 -1.0000
vn -0.5000 0.0000 -0.8660
vn -0.8660 0.0000 -0.5000
vn -1.0000 0.0000 -0.0000
vn -0.8660 0.0000 0.5000
vn -0.5000 0.0000 0.8660
vn 0.0000 0.0000 1.0000
vn 0.5000 0.0000 0.8660
vn 0.8660 0.0000 0.5000
vn 0.0000 -1.0000 -0.0000
vn 0.0000 1.0000 -0.0000
# 14 vertex normals

vt 0.6971 0.9931 1.0000
vt 0.6282 0.9931 1.0000
vt 0.6282 0.0067 1.0000
vt 0.6971 0.0067 1.0000
vt 0.7661 0.9931 1.0000
vt 0.7661 0.0067 1.0000
vt 0.8351 0.9931 1.0000
vt 0.8351 0.0067 1.0000
vt 0.0763 0.9931 1.0000
vt 0.0073 0.9931 1.0000
vt 0.0073 0.0067 1.0000
vt 0.0763 0.0067 1.0000
vt 0.1453 0.9931 1.0000
vt 0.1453 0.0067 1.0000
vt 0.2143 0.9931 1.0000
vt 0.2143 0.0067 1.0000
vt 0.2833 0.9931 1.0000
vt 0.2833 0.0067 1.0000
vt 0.3522 0.9931 1.0000
vt 0.3522 0.0067 1.0000
vt 0.4212 0.9931 1.0000
vt 0.4212 0.0067 1.0000
vt 0.4902 0.9931 1.0000
vt 0.4902 0.0067 1.0000
vt 0.5592 0.9931 1.0000
vt 0.5592 0.0067 1.0000
vt 0.8613 0.9605 -0.2500
vt 0.8584 0.9440 -0.2500
vt 0.8725 0.9290 -0.2500
vt 0.9000 0.9195 -0.2500
vt 0.9592 0.9014 0.2500
vt 0.9263 0.9057 0.2500
vt 0.9920 0.8733 0.2500
vt 0.9832 0.8895 0.2500
vt 0.9831 0.9386 -0.2500
vt 0.9335 0.9181 -0.2500
vt 0.9639 0.9251 -0.2500
vt 0.9444 0.9796 -0.2500
vt 0.8606 0.8733 0.2500
vt 0.8934 0.9014 0.2500
vt 0.8694 0.8895 0.2500
vt 0.9263 0.8408 0.2500
vt 0.9860 0.9551 -0.2500
vt 0.9719 0.9701 -0.2500
vt 0.9109 0.9811 -0.2500
vt 0.8805 0.9741 -0.2500
vt 0.8694 0.8570 0.2500
vt 0.8934 0.8452 0.2500
vt 0.9592 0.8452 0.2500
vt 0.9832 0.8570 0.2500
# 50 texture coords

g Pillar_wired_collider
s 1
f 43/87/25 44/88/26 45/89/26 46/90/25 
f 47/91/27 43/87/25 46/90/25 48/92/27 
f 49/93/28 47/91/27 48/92/27 50/94/28 
f 51/95/29 49/96/28 50/97/28 52/98/29 
f 53/99/30 51/95/29 52/98/29 54/100/30 
f 55/101/31 53/99/30 54/100/30 56/102/31 
f 57/103/32 55/101/31 56/102/31 58/104/32 
f 59/105/33 57/103/32 58/104/32 60/106/33 
f 61/107/34 59/105/33 60/106/33 62/108/34 
f 63/109/35 61/107/34 62/108/34 64/110/35 
f 65/111/36 63/109/35 64/110/35 66/112/36 
f 44/88/26 65/111/36 66/112/36 45/89/26 
s 2
f 45/113/37 66/114/37 64/115/37 62/116/37 
f 65/117/38 44/118/38 61/119/38 63/120/38 
f 56/121/37 62/116/37 60/122/37 58/123/37 
f 45/113/37 62/116/37 56/121/37 50/124/37 
f 49/125/38 44/118/38 43/126/38 47/127/38 
f 55/128/38 61/119/38 44/118/38 49/125/38 
f 50/124/37 56/121/37 54/129/37 52/130/37 
f 45/113/37 50/124/37 48/131/37 46/132/37 
f 55/128/38 49/125/38 51/133/38 53/134/38 
f 61/119/38 55/128/38 57/135/38 59/136/38 
# 22 polygons

