# 3ds Max Wavefront OBJ Exporter v0.97b - (c)2007 guruware
# File Created: 20.11.2013 11:34:04

#
# object Pillar_old_school
#

v  -14.2399 0.0000 -14.9899
v  -14.2399 0.0000 14.9899
v  -14.9899 0.0000 14.2399
v  -14.9899 0.0000 -14.2399
v  9.2500 10.0998 10.0000
v  9.2500 124.0000 10.0000
v  -9.2500 124.0000 10.0000
v  -9.2500 10.0998 10.0000
v  10.0000 10.0998 -9.2500
v  10.0000 124.0000 -9.2500
v  10.0000 124.0000 9.2500
v  10.0000 10.0998 9.2500
v  -9.2500 10.0998 -10.0000
v  -9.2500 124.0000 -10.0000
v  9.2500 124.0000 -10.0000
v  9.2500 10.0998 -10.0000
v  -10.0000 10.0998 9.2500
v  -10.0000 124.0000 9.2500
v  -10.0000 124.0000 -9.2500
v  -10.0000 10.0998 -9.2500
v  -14.2399 5.1563 14.9899
v  14.2399 0.0000 14.9899
v  14.2399 5.1563 14.9899
v  14.9899 5.1563 14.2399
v  14.9899 0.0000 14.2399
v  14.9899 0.0000 -14.2399
v  14.9899 5.1563 -14.2399
v  14.2399 5.1563 -14.9899
v  14.2399 0.0000 -14.9899
v  -14.2399 5.1563 -14.9899
v  -14.9899 5.1563 -14.2399
v  -14.9899 5.1563 14.2399
v  8.1893 125.0000 8.9393
v  -8.1893 125.0000 8.9393
v  8.9393 125.0000 -8.1893
v  8.9393 125.0000 8.1893
v  -8.1893 125.0000 -8.9393
v  8.1893 125.0000 -8.9393
v  -8.9393 125.0000 8.1893
v  -8.9393 125.0000 -8.1893
v  14.9899 250.0000 -14.2399
v  14.2399 250.0000 -14.9899
v  -14.2399 250.0000 -14.9899
v  -14.9899 250.0000 -14.2399
v  -10.0000 239.9002 9.2500
v  -10.0000 239.9002 -9.2500
v  -10.0000 126.0000 -9.2500
v  -10.0000 126.0000 9.2500
v  9.2500 239.9002 10.0000
v  -9.2500 239.9002 10.0000
v  -9.2500 126.0000 10.0000
v  9.2500 126.0000 10.0000
v  10.0000 239.9002 -9.2500
v  10.0000 239.9002 9.2500
v  10.0000 126.0000 9.2500
v  10.0000 126.0000 -9.2500
v  -9.2500 239.9002 -10.0000
v  9.2500 239.9002 -10.0000
v  9.2500 126.0000 -10.0000
v  -9.2500 126.0000 -10.0000
v  -14.9899 244.8437 -14.2399
v  -14.9899 244.8437 14.2399
v  -14.9899 250.0000 14.2399
v  -14.2399 244.8437 14.9899
v  14.2399 244.8437 14.9899
v  14.2399 250.0000 14.9899
v  -14.2399 250.0000 14.9899
v  14.9899 244.8437 14.2399
v  14.9899 244.8437 -14.2399
v  14.9899 250.0000 14.2399
v  14.2399 244.8437 -14.9899
v  -14.2399 244.8437 -14.9899
# 72 vertices

vn -0.3694 -0.2612 -0.8918
vn -0.3694 -0.2612 0.8918
vn -0.7173 -0.6303 0.2971
vn -0.7173 -0.6303 -0.2971
vn 0.2966 0.4821 0.8244
vn 0.3640 0.4200 0.8313
vn -0.3640 0.4200 0.8313
vn -0.2966 0.4821 0.8244
vn 0.8244 0.4821 -0.2966
vn 0.8313 0.4200 -0.3640
vn 0.8313 0.4200 0.3640
vn 0.8244 0.4821 0.2966
vn -0.2966 0.4821 -0.8244
vn -0.3640 0.4200 -0.8313
vn 0.3640 0.4200 -0.8313
vn 0.2966 0.4821 -0.8244
vn -0.8244 0.4821 0.2966
vn -0.8313 0.4200 0.3640
vn -0.8313 0.4200 -0.3640
vn -0.8244 0.4821 -0.2966
vn -0.3659 0.4110 0.8350
vn 0.3694 -0.2612 0.8918
vn 0.3659 0.4110 0.8350
vn 0.8350 0.4110 0.3659
vn 0.7173 -0.6303 0.2971
vn 0.7173 -0.6303 -0.2971
vn 0.8350 0.4110 -0.3659
vn 0.3659 0.4110 -0.8350
vn 0.3694 -0.2612 -0.8918
vn -0.3659 0.4110 -0.8350
vn -0.8350 0.4110 -0.3659
vn -0.8350 0.4110 0.3659
vn 0.1686 0.7958 0.5816
vn -0.1686 0.7958 0.5816
vn 0.5816 0.7958 -0.1686
vn 0.5816 0.7958 0.1686
vn -0.1686 0.7958 -0.5816
vn 0.1686 0.7958 -0.5816
vn -0.5816 0.7958 0.1686
vn -0.5816 0.7958 -0.1686
vn 0.0000 -1.0000 -0.0000
vn 0.8918 0.2612 -0.3694
vn 0.2971 0.6303 -0.7173
vn -0.2971 0.6303 -0.7173
vn -0.8918 0.2612 -0.3694
vn -0.8244 -0.4821 0.2966
vn -0.8244 -0.4821 -0.2966
vn -0.8313 -0.4200 -0.3640
vn -0.8313 -0.4200 0.3640
vn 0.2966 -0.4821 0.8244
vn -0.2966 -0.4821 0.8244
vn -0.3640 -0.4200 0.8313
vn 0.3640 -0.4200 0.8313
vn 0.8244 -0.4821 -0.2966
vn 0.8244 -0.4821 0.2966
vn 0.8313 -0.4200 0.3640
vn 0.8313 -0.4200 -0.3640
vn -0.2966 -0.4821 -0.8244
vn 0.2966 -0.4821 -0.8244
vn 0.3640 -0.4200 -0.8313
vn -0.3640 -0.4200 -0.8313
vn -0.8350 -0.4110 -0.3659
vn -0.8350 -0.4110 0.3659
vn -0.8918 0.2612 0.3694
vn -0.3659 -0.4110 0.8350
vn 0.3659 -0.4110 0.8350
vn 0.2971 0.6303 0.7173
vn -0.2971 0.6303 0.7173
vn 0.8350 -0.4110 0.3659
vn 0.8350 -0.4110 -0.3659
vn 0.8918 0.2612 0.3694
vn 0.3659 -0.4110 -0.8350
vn -0.3659 -0.4110 -0.8350
vn -0.5816 -0.7958 0.1686
vn -0.5816 -0.7958 -0.1686
vn 0.1686 -0.7958 0.5816
vn -0.1686 -0.7958 0.5816
vn 0.5816 -0.7958 -0.1686
vn 0.5816 -0.7958 0.1686
vn -0.1686 -0.7958 -0.5816
vn 0.1686 -0.7958 -0.5816
vn 0.0000 1.0000 -0.0000
# 82 vertex normals

vt 0.0992 0.6885 0.0000
vt 0.0992 0.9040 0.0000
vt 0.0938 0.8986 0.0000
vt 0.0938 0.6939 0.0000
vt 0.1584 0.1606 0.0000
vt 0.9775 0.1606 0.0000
vt 0.9775 0.2937 0.0000
vt 0.1584 0.2937 0.0000
vt 0.1584 0.0168 0.0000
vt 0.9775 0.0168 0.0000
vt 0.9775 0.1498 0.0000
vt 0.1584 0.1498 0.0000
vt 0.1584 0.4483 0.0000
vt 0.9775 0.4483 0.0000
vt 0.9775 0.5813 0.0000
vt 0.1584 0.5813 0.0000
vt 0.1584 0.3045 0.0000
vt 0.9775 0.3045 0.0000
vt 0.9775 0.4375 0.0000
vt 0.1584 0.4375 0.0000
vt 0.0992 0.9411 0.0000
vt 0.3039 0.9040 0.0000
vt 0.3039 0.9411 0.0000
vt 0.3464 0.8986 0.0000
vt 0.3093 0.8986 0.0000
vt 0.3093 0.6939 0.0000
vt 0.3464 0.6939 0.0000
vt 0.3039 0.6514 0.0000
vt 0.3039 0.6885 0.0000
vt 0.0992 0.6514 0.0000
vt 0.0567 0.6939 0.0000
vt 0.0567 0.8986 0.0000
vt 0.1350 0.9916 0.0000
vt 0.2681 0.9916 0.0000
vt 0.3969 0.8628 0.0000
vt 0.3969 0.7297 0.0000
vt 0.2681 0.6009 0.0000
vt 0.1350 0.6009 0.0000
vt 0.0062 0.7297 0.0000
vt 0.0062 0.8628 0.0000
vt 0.9879 0.1683 0.0000
vt 0.9879 0.2860 0.0000
vt 0.9879 0.0244 0.0000
vt 0.9879 0.1422 0.0000
vt 0.9879 0.4559 0.0000
vt 0.9879 0.5737 0.0000
vt 0.9879 0.3121 0.0000
vt 0.9879 0.4298 0.0000
vt 0.1584 0.5889 0.0000
vt 0.9775 0.5889 0.0000
vt 0.3093 0.9062 0.0000
vt 0.3464 0.9062 0.0000
vt 0.0567 0.9062 0.0000
vt 0.0938 0.9062 0.0000
vt 0.3115 0.6885 0.0000
vt 0.3115 0.6514 0.0000
vt 0.0938 0.6863 0.0000
vt 0.0567 0.6863 0.0000
vt 0.3490 0.9058 0.0000
vt 0.3995 0.8700 0.0000
vt 0.0036 0.8700 0.0000
vt 0.0541 0.9058 0.0000
vt 0.3111 0.6488 0.0000
vt 0.2753 0.5983 0.0000
vt 0.0541 0.6867 0.0000
vt 0.0036 0.7225 0.0000
vt 0.9801 0.1569 0.0000
vt 0.9905 0.1493 0.0000
vt 0.9905 0.3049 0.0000
vt 0.9801 0.2973 0.0000
vt 0.9801 0.5884 0.0000
vt 0.9905 0.5808 0.0000
vt 0.9801 0.4446 0.0000
vt 0.9905 0.4369 0.0000
# 74 texture coords

g Pillar_old_school
s 1
f 1/1/1 2/2/2 3/3/3 4/4/4 
f 5/5/5 6/6/6 7/7/7 8/8/8 
f 9/9/9 10/10/10 11/11/11 12/12/12 
f 13/13/13 14/14/14 15/15/15 16/16/16 
f 17/17/17 18/18/18 19/19/19 20/20/20 
f 21/21/21 2/2/2 22/22/22 23/23/23 
f 24/24/24 25/25/25 26/26/26 27/27/27 
f 28/28/28 29/29/29 1/1/1 30/30/30 
f 31/31/31 4/4/4 3/3/3 32/32/32 
f 8/33/8 21/21/21 23/23/23 5/34/5 
f 12/35/12 24/24/24 27/27/27 9/36/9 
f 16/37/16 28/28/28 30/30/30 13/38/13 
f 20/39/20 31/31/31 32/32/32 17/40/17 
f 33/41/33 34/42/34 7/7/7 6/6/6 
f 35/43/35 36/44/36 11/11/11 10/10/10 
f 37/45/37 38/46/38 15/15/15 14/14/14 
f 39/47/39 40/48/40 19/19/19 18/18/18 
f 7/7/7 18/18/18 17/17/17 8/8/8 
f 5/5/5 12/12/12 11/11/11 6/6/6 
f 9/49/9 16/16/16 15/15/15 10/50/10 
f 13/13/13 20/20/20 19/19/19 14/14/14 
f 22/51/22 25/25/25 24/24/24 23/52/23 
f 21/53/21 32/32/32 3/3/3 2/54/2 
f 26/55/26 29/29/29 28/28/28 27/56/27 
f 1/57/1 4/4/4 31/31/31 30/58/30 
f 23/59/23 24/24/24 12/35/12 5/60/5 
f 8/61/8 17/40/17 32/32/32 21/62/21 
f 27/63/27 28/28/28 16/37/16 9/64/9 
f 30/65/30 31/31/31 20/39/20 13/66/13 
f 6/67/6 11/11/11 36/44/36 33/68/33 
f 34/69/34 39/47/39 18/18/18 7/70/7 
f 10/71/10 15/15/15 38/46/38 35/72/35 
f 14/73/14 19/19/19 40/48/40 37/74/37 
s 2
f 29/29/41 22/22/41 2/2/41 1/1/41 
s 1
f 26/26/26 25/25/25 22/22/22 29/29/29 
f 41/1/42 42/4/43 43/3/44 44/2/45 
f 45/5/46 46/8/47 47/7/48 48/6/49 
f 49/9/50 50/12/51 51/11/52 52/10/53 
f 53/13/54 54/16/55 55/15/56 56/14/57 
f 57/17/58 58/20/59 59/19/60 60/18/61 
f 61/21/62 62/23/63 63/22/64 44/2/45 
f 64/24/65 65/27/66 66/26/67 67/25/68 
f 68/28/69 69/30/70 41/1/42 70/29/71 
f 71/31/72 72/32/73 43/3/44 42/4/43 
f 46/33/47 45/34/46 62/23/63 61/21/62 
f 50/35/51 49/36/50 65/27/66 64/24/65 
f 54/37/55 53/38/54 69/30/70 68/28/69 
f 58/39/59 57/40/58 72/32/73 71/31/72 
f 39/41/74 48/6/49 47/7/48 40/42/75 
f 33/43/76 52/10/53 51/11/52 34/44/77 
f 35/45/78 56/14/57 55/15/56 36/46/79 
f 37/47/80 60/18/61 59/19/60 38/48/81 
f 47/7/48 46/8/47 57/17/58 60/18/61 
f 45/5/46 48/6/49 51/11/52 50/12/51 
f 49/49/50 52/50/53 55/15/56 54/16/55 
f 53/13/54 56/14/57 59/19/60 58/20/59 
f 63/51/64 62/52/63 64/24/65 67/25/68 
f 61/53/62 44/54/45 43/3/44 72/32/73 
f 66/55/67 65/56/66 68/28/69 70/29/71 
f 41/57/42 69/58/70 71/31/72 42/4/43 
f 62/59/63 45/60/46 50/35/51 64/24/65 
f 46/61/47 61/62/62 72/32/73 57/40/58 
f 65/63/66 49/64/50 54/37/55 68/28/69 
f 69/65/70 53/66/54 58/39/59 71/31/72 
f 48/67/49 39/68/74 34/44/77 51/11/52 
f 40/69/75 47/70/48 60/18/61 37/47/80 
f 52/71/53 33/72/76 36/46/79 55/15/56 
f 56/73/57 35/74/78 38/48/81 59/19/60 
s 2
f 70/29/82 41/1/82 44/2/82 63/22/82 
s 1
f 66/26/67 70/29/71 63/22/64 67/25/68 
# 70 polygons

#
# object Pillar_old_school_LOD
#

v  -9.6250 124.0000 9.6250
v  -9.6250 10.0998 9.6250
v  9.6250 10.0998 9.6250
v  9.6250 124.0000 9.6250
v  9.6250 10.0998 -9.6250
v  9.6250 124.0000 -9.6250
v  -9.6250 10.0998 -9.6250
v  -9.6250 124.0000 -9.6250
v  14.6149 0.0000 14.6149
v  14.6149 5.1563 14.6149
v  -14.6149 5.1563 14.6149
v  -14.6149 0.0000 14.6149
v  14.6149 0.0000 -14.6149
v  14.6149 5.1563 -14.6149
v  -14.6149 0.0000 -14.6149
v  -14.6149 5.1563 -14.6149
v  8.5643 125.0000 8.5643
v  -8.5643 125.0000 8.5643
v  8.5643 125.0000 -8.5643
v  -8.5643 125.0000 -8.5643
v  -9.6250 126.0000 -9.6250
v  -9.6250 126.0000 9.6250
v  -9.6250 239.9002 9.6250
v  -9.6250 239.9002 -9.6250
v  9.6250 126.0000 9.6250
v  9.6250 239.9002 9.6250
v  9.6250 126.0000 -9.6250
v  9.6250 239.9002 -9.6250
v  -14.6149 250.0000 14.6149
v  -14.6149 250.0000 -14.6149
v  -14.6149 244.8437 -14.6149
v  -14.6149 244.8437 14.6149
v  14.6149 250.0000 14.6149
v  14.6149 244.8437 14.6149
v  14.6149 250.0000 -14.6149
v  14.6149 244.8437 -14.6149
# 36 vertices

vn 0.1686 -0.7958 -0.5816
vn 0.0000 0.4470 0.8945
vn 0.0000 0.2953 0.9554
vn 0.9554 0.2953 -0.0000
vn 0.8945 0.4470 -0.0000
vn 0.0000 0.2953 -0.9554
vn 0.0000 0.4470 -0.8945
vn -0.9554 0.2953 -0.0000
vn -0.8945 0.4470 -0.0000
vn 0.0000 0.0000 1.0000
vn 0.0000 0.2892 0.9573
vn 0.3659 -0.4110 0.8350
vn 1.0000 0.0000 -0.0000
vn 0.9573 0.2892 -0.0000
vn 0.0000 0.0000 -1.0000
vn 0.0000 0.2892 -0.9573
vn -1.0000 0.0000 -0.0000
vn -0.9573 0.2892 -0.0000
vn -0.1686 0.7958 0.5816
vn 0.0000 0.7276 0.6860
vn 0.6860 0.7276 -0.0000
vn 0.0000 0.7276 -0.6860
vn -0.6860 0.7276 -0.0000
vn 0.0000 -1.0000 -0.0000
vn -0.9554 -0.2953 -0.0000
vn -0.8945 -0.4470 -0.0000
vn 0.0000 -0.2953 0.9554
vn 0.0000 -0.4470 0.8945
vn 0.9554 -0.2953 -0.0000
vn 0.8945 -0.4470 -0.0000
vn 0.0000 -0.2953 -0.9554
vn 0.0000 -0.4470 -0.8945
vn -0.9573 -0.2892 -0.0000
vn 0.0000 -0.2892 0.9573
vn 0.9573 -0.2892 -0.0000
vn 0.0000 -0.2892 -0.9573
vn -0.6860 -0.7276 -0.0000
vn 0.0000 -0.7276 0.6860
vn 0.6860 -0.7276 -0.0000
vn 0.0000 -0.7276 -0.6860
vn 0.0000 1.0000 -0.0000
# 41 vertex normals

vt 0.9775 0.2991 0.0000
vt 0.1584 0.2991 0.0000
vt 0.1584 0.1552 0.0000
vt 0.9784 0.1558 0.0000
vt 0.1584 0.0168 0.0000
vt 0.9775 0.0168 0.0000
vt 0.9784 0.5862 0.0000
vt 0.1584 0.5851 0.0000
vt 0.1584 0.4429 0.0000
vt 0.9784 0.4435 0.0000
vt 0.3039 0.9040 0.0000
vt 0.3039 0.9411 0.0000
vt 0.0992 0.9411 0.0000
vt 0.0965 0.9013 0.0000
vt 0.3093 0.6939 0.0000
vt 0.3464 0.6939 0.0000
vt 0.3473 0.9035 0.0000
vt 0.3093 0.9024 0.0000
vt 0.0956 0.6896 0.0000
vt 0.0992 0.6514 0.0000
vt 0.3088 0.6505 0.0000
vt 0.3077 0.6885 0.0000
vt 0.0567 0.9024 0.0000
vt 0.0558 0.6890 0.0000
vt 0.2681 0.9916 0.0000
vt 0.1350 0.9916 0.0000
vt 0.3969 0.7297 0.0000
vt 0.3982 0.8664 0.0000
vt 0.1350 0.6009 0.0000
vt 0.2717 0.5996 0.0000
vt 0.0049 0.8664 0.0000
vt 0.0049 0.7261 0.0000
vt 0.9879 0.1683 0.0000
vt 0.9879 0.2860 0.0000
vt 0.9879 0.0244 0.0000
vt 0.9898 0.1475 0.0000
vt 0.9879 0.4559 0.0000
vt 0.9898 0.5790 0.0000
vt 0.9886 0.3103 0.0000
vt 0.9898 0.4351 0.0000
vt 0.9784 0.3003 0.0000
vt 0.9779 0.1582 0.0000
vt 0.1584 0.1525 0.0000
vt 0.1584 0.2964 0.0000
vt 0.9779 0.5876 0.0000
vt 0.9779 0.4459 0.0000
vt 0.1584 0.4402 0.0000
vt 0.1584 0.5832 0.0000
vt 0.3075 0.9017 0.0000
vt 0.0947 0.9020 0.0000
vt 0.3070 0.6903 0.0000
vt 0.3468 0.9049 0.0000
vt 0.0974 0.6890 0.0000
vt 0.3102 0.6510 0.0000
vt 0.0563 0.6876 0.0000
vt 0.0558 0.9023 0.0000
vt 0.3975 0.8646 0.0000
vt 0.2699 0.6003 0.0000
vt 0.0055 0.7279 0.0000
vt 0.0043 0.8682 0.0000
# 60 texture coords

g Pillar_old_school_LOD
s 1
f 73/75/83 74/76/84 75/77/84 76/78/85 
f 76/78/86 75/77/87 77/79/87 78/80/86 
f 78/81/88 77/82/89 79/83/89 80/84/88 
f 80/84/90 79/83/91 74/76/91 73/75/90 
f 81/85/92 82/86/93 83/87/93 84/88/94 
f 85/89/95 86/90/96 82/91/96 81/92/95 
f 87/93/97 88/94/98 86/95/98 85/96/97 
f 84/88/99 83/97/100 88/98/100 87/93/101 
f 82/86/93 75/99/84 74/100/84 83/87/93 
f 86/90/96 77/101/87 75/102/87 82/91/96 
f 88/94/98 79/103/89 77/104/89 86/95/98 
f 83/97/100 74/105/91 79/106/91 88/98/100 
f 73/75/83 76/78/85 89/107/92 90/108/102 
f 76/78/86 78/80/86 91/109/95 89/110/103 
f 78/81/88 80/84/88 92/111/97 91/112/104 
f 80/84/90 73/75/90 90/113/99 92/114/105 
s 2
f 84/88/106 87/93/106 85/96/106 81/85/106 
s 1
f 93/115/107 94/116/107 95/117/108 96/118/108 
f 94/116/109 97/80/109 98/79/110 95/117/110 
f 97/119/111 99/120/111 100/121/112 98/122/112 
f 99/120/113 93/115/113 96/118/114 100/121/114 
f 101/123/99 102/124/99 103/87/115 104/86/115 
f 105/125/92 101/123/92 104/126/116 106/90/116 
f 107/127/95 105/125/95 106/128/117 108/94/117 
f 102/124/97 107/127/97 108/129/118 103/130/118 
f 104/86/115 103/87/115 96/100/108 95/99/108 
f 106/90/116 104/126/116 95/131/110 98/101/110 
f 108/94/117 106/128/117 98/132/112 100/103/112 
f 103/130/118 108/129/118 100/133/114 96/134/114 
f 93/115/107 92/108/119 90/107/99 94/116/107 
f 94/116/109 90/110/120 89/109/92 97/80/109 
f 97/119/111 89/112/121 91/111/95 99/120/111 
f 99/120/113 91/114/122 92/113/97 93/115/113 
s 2
f 102/124/123 101/123/123 105/125/123 107/127/123 
# 34 polygons

#
# object Pillar_old_school_collider
#

v  -15.4351 0.0000 15.5649
v  -15.4351 0.0000 -15.4351
v  15.5649 0.0000 -15.4351
v  15.5649 0.0000 15.5649
v  -15.4351 250.0000 15.5649
v  15.5649 250.0000 15.5649
v  15.5649 250.0000 -15.4351
v  -15.4351 250.0000 -15.4351
# 8 vertices

vn 0.0000 -1.0000 -0.0000
vn 0.0000 1.0000 -0.0000
vn 0.0000 0.0000 1.0000
vn 1.0000 0.0000 -0.0000
vn 0.0000 0.0000 -1.0000
vn -1.0000 0.0000 -0.0000
# 6 vertex normals

vt 1.0000 0.0000 0.0000
vt 1.0000 1.0000 0.0000
vt 0.0000 1.0000 0.0000
vt 0.0000 0.0000 0.0000
# 4 texture coords

g Pillar_old_school_collider
s 2
f 109/135/124 110/136/124 111/137/124 112/138/124 
s 4
f 113/138/125 114/135/125 115/136/125 116/137/125 
s 8
f 109/138/126 112/135/126 114/136/126 113/137/126 
s 16
f 112/138/127 111/135/127 115/136/127 114/137/127 
s 32
f 111/138/128 110/135/128 116/136/128 115/137/128 
s 64
f 110/138/129 109/135/129 113/136/129 116/137/129 
# 6 polygons

