# 3ds Max Wavefront OBJ Exporter v0.97b - (c)2007 guruware
# File Created: 20.11.2013 10:54:15

#
# object Pillar_obelisk
#

v  23.5000 0.0000 25.0000
v  -23.5000 0.0000 25.0000
v  -23.5000 0.0000 -25.0000
v  23.5000 0.0000 -25.0000
v  23.5000 10.0000 25.0000
v  -23.5000 10.0000 25.0000
v  25.0000 10.0000 -23.5000
v  25.0000 10.0000 23.5000
v  25.0000 0.0000 23.5000
v  25.0000 0.0000 -23.5000
v  -23.5000 10.0000 -25.0000
v  23.5000 10.0000 -25.0000
v  -25.0000 10.0000 23.5000
v  -25.0000 10.0000 -23.5000
v  -25.0000 0.0000 -23.5000
v  -25.0000 0.0000 23.5000
v  8.5000 25.0000 10.0000
v  -8.5000 25.0000 10.0000
v  10.0000 25.0000 -8.5000
v  10.0000 25.0000 8.5000
v  -8.5000 25.0000 -10.0000
v  8.5000 25.0000 -10.0000
v  -10.0000 25.0000 8.5000
v  -10.0000 25.0000 -8.5000
v  16.9710 40.0000 18.4710
v  -16.9710 40.0000 18.4710
v  18.4710 40.0000 -16.9710
v  18.4710 40.0000 16.9710
v  -16.9710 40.0000 -18.4710
v  16.9710 40.0000 -18.4710
v  -18.4710 40.0000 16.9710
v  -18.4710 40.0000 -16.9710
v  8.4330 250.0000 9.9330
v  -8.4330 250.0000 9.9330
v  9.9330 250.0000 -8.4330
v  9.9330 250.0000 8.4330
v  -8.4330 250.0000 -9.9330
v  8.4330 250.0000 -9.9330
v  -9.9330 250.0000 8.4330
v  -9.9330 250.0000 -8.4330
v  0.0000 270.9756 -0.0000
# 41 vertices

vn 0.2971 -0.6303 0.7173
vn -0.2971 -0.6303 0.7173
vn -0.2971 -0.6303 -0.7173
vn 0.2971 -0.6303 -0.7173
vn 0.3662 0.4093 0.8357
vn -0.3662 0.4093 0.8357
vn 0.8357 0.4093 -0.3662
vn 0.8357 0.4093 0.3662
vn 0.7173 -0.6303 0.2971
vn 0.7173 -0.6303 -0.2971
vn -0.3662 0.4093 -0.8357
vn 0.3662 0.4093 -0.8357
vn -0.8357 0.4093 0.3662
vn -0.8357 0.4093 -0.3662
vn -0.7173 -0.6303 -0.2971
vn -0.7173 -0.6303 0.2971
vn 0.2946 0.1661 0.9411
vn -0.2946 0.1661 0.9411
vn 0.9411 0.1661 -0.2946
vn 0.9411 0.1661 0.2946
vn -0.2946 0.1661 -0.9411
vn 0.2946 0.1661 -0.9411
vn -0.9411 0.1661 0.2946
vn -0.9411 0.1661 -0.2946
vn 0.3890 -0.2707 0.8806
vn -0.3890 -0.2707 0.8806
vn 0.8806 -0.2707 -0.3890
vn 0.8806 -0.2707 0.3890
vn -0.3890 -0.2707 -0.8806
vn 0.3890 -0.2707 -0.8806
vn -0.8806 -0.2707 0.3890
vn -0.8806 -0.2707 -0.3890
vn 0.3778 0.2764 0.8837
vn -0.3778 0.2764 0.8837
vn 0.8837 0.2764 -0.3778
vn 0.8837 0.2764 0.3778
vn -0.3778 0.2764 -0.8837
vn 0.3778 0.2764 -0.8837
vn -0.8837 0.2764 0.3778
vn -0.8837 0.2764 -0.3778
vn 0.0000 0.4280 0.9038
vn 0.9038 0.4280 -0.0000
vn 0.0000 0.4280 -0.9038
vn -0.9038 0.4280 -0.0000
vn -0.6012 0.5264 0.6012
vn 0.6012 0.5264 0.6012
vn 0.6012 0.5264 -0.6012
vn -0.6012 0.5264 -0.6012
# 48 vertex normals

vt 0.9500 0.1759 0.0000
vt 0.7853 0.1752 0.0000
vt 0.7860 0.0000 0.0000
vt 0.9507 0.0007 0.0000
vt 0.6631 0.7385 0.0000
vt 0.8279 0.7385 0.0000
vt 0.8279 0.7736 0.0000
vt 0.6631 0.7736 0.0000
vt 0.4910 0.7385 0.0000
vt 0.6557 0.7385 0.0000
vt 0.6557 0.7736 0.0000
vt 0.4910 0.7735 0.0000
vt 0.3189 0.7385 0.0000
vt 0.4836 0.7385 0.0000
vt 0.4836 0.7735 0.0000
vt 0.3189 0.7735 0.0000
vt 0.8353 0.7385 0.0000
vt 1.0000 0.7385 0.0000
vt 1.0000 0.7736 0.0000
vt 0.8353 0.7736 0.0000
vt 0.1364 0.6249 0.0000
vt 0.0891 0.6612 0.0000
vt 0.0022 0.6341 0.0000
vt 0.1330 0.5339 0.0000
vt 0.1938 0.6572 0.0000
vt 0.1439 0.6246 0.0000
vt 0.1404 0.5337 0.0000
vt 0.2784 0.6236 0.0000
vt 0.1825 0.7220 0.0000
vt 0.1965 0.6641 0.0000
vt 0.2812 0.6305 0.0000
vt 0.2424 0.7906 0.0000
vt 0.0869 0.6683 0.0000
vt 0.1053 0.7249 0.0000
vt 0.0508 0.7979 0.0000
vt 0.0000 0.6412 0.0000
vt 0.4626 0.5340 0.0000
vt 0.5665 0.5920 0.0000
vt 0.5111 0.6303 0.0000
vt 0.4591 0.6012 0.0000
vt 0.3459 0.5806 0.0000
vt 0.4552 0.5337 0.0000
vt 0.4517 0.6008 0.0000
vt 0.3969 0.6243 0.0000
vt 0.3114 0.7014 0.0000
vt 0.3410 0.5862 0.0000
vt 0.3921 0.6300 0.0000
vt 0.3773 0.6877 0.0000
vt 0.5707 0.5981 0.0000
vt 0.5882 0.7158 0.0000
vt 0.5241 0.6953 0.0000
vt 0.5154 0.6364 0.0000
vt 0.7371 0.2655 0.0000
vt 0.7390 0.3246 0.0000
vt 0.0038 0.3778 0.0000
vt 0.0000 0.2589 0.0000
vt 0.7401 0.1991 0.0000
vt 0.7372 0.2581 0.0000
vt 0.0001 0.2515 0.0000
vt 0.0060 0.1327 0.0000
vt 0.7485 0.1331 0.0000
vt 0.7408 0.1917 0.0000
vt 0.0066 0.1253 0.0000
vt 0.0222 0.0073 0.0000
vt 0.7395 0.3320 0.0000
vt 0.7462 0.3908 0.0000
vt 0.0177 0.5034 0.0000
vt 0.0043 0.3852 0.0000
vt 0.1496 0.8899 0.0000
vt 0.0968 0.9166 0.0000
vt 0.0865 0.8307 0.0000
vt 0.0894 0.9171 0.0000
vt 0.0332 0.8988 0.0000
vt 0.0275 0.8940 0.0000
vt 0.0006 0.8414 0.0000
vt 0.1730 0.8281 0.0000
vt 0.1544 0.8843 0.0000
vt 0.3114 0.7385 0.0000
vt 0.3114 0.7735 0.0000
vt 0.1769 0.7269 0.0000
vt 0.2368 0.7955 0.0000
vt 0.3129 0.7087 0.0000
vt 0.3788 0.6950 0.0000
vt 0.7498 0.1257 0.0000
vt 0.0234 0.0000 0.0000
vt 0.0000 0.8340 0.0000
vt 0.7800 0.1699 0.0000
vt 0.7807 0.0052 0.0000
vt 0.9559 0.0060 0.0000
vt 0.9553 0.1707 0.0000
# 90 texture coords

g Pillar_obelisk
s 1
f 1/1/1 2/2/2 3/3/3 4/4/4 
f 5/5/5 6/6/6 2/7/2 1/8/1 
f 7/9/7 8/10/8 9/11/9 10/12/10 
f 11/13/11 12/14/12 4/15/4 3/16/3 
f 13/17/13 14/18/14 15/19/15 16/20/16 
f 17/21/17 18/22/18 6/23/6 5/24/5 
f 19/25/19 20/26/20 8/27/8 7/28/7 
f 21/29/21 22/30/22 12/31/12 11/32/11 
f 23/33/23 24/34/24 14/35/14 13/36/13 
f 25/37/25 26/38/26 18/39/18 17/40/17 
f 27/41/27 28/42/28 20/43/20 19/44/19 
f 29/45/29 30/46/30 22/47/22 21/48/21 
f 31/49/31 32/50/32 24/51/24 23/52/23 
f 33/53/33 34/54/34 26/55/26 25/56/25 
f 35/57/35 36/58/36 28/59/28 27/60/27 
f 37/61/37 38/62/38 30/63/30 29/64/29 
f 39/65/39 40/66/40 32/67/32 31/68/31 
f 34/69/34 33/70/33 41/71/41 
f 36/72/36 35/73/35 41/71/42 
f 38/74/38 37/75/37 41/71/43 
f 40/76/40 39/77/39 41/71/44 
f 8/10/8 5/5/5 1/8/1 9/11/9 
f 16/20/16 2/7/2 6/6/6 13/17/13 
f 12/14/12 7/9/7 10/12/10 4/15/4 
f 14/78/14 11/13/11 3/16/3 15/79/15 
f 18/22/18 23/33/23 13/36/13 6/23/6 
f 20/26/20 17/21/17 5/24/5 8/27/8 
f 22/30/22 19/25/19 7/28/7 12/31/12 
f 24/80/24 21/29/21 11/32/11 14/81/14 
f 26/38/26 31/49/31 23/52/23 18/39/18 
f 28/42/28 25/37/25 17/40/17 20/43/20 
f 30/46/30 27/41/27 19/44/19 22/47/22 
f 32/82/32 29/45/29 21/48/21 24/83/24 
f 34/54/34 39/65/39 31/68/31 26/55/26 
f 36/58/36 33/53/33 25/56/25 28/59/28 
f 38/62/38 35/57/35 27/60/27 30/63/30 
f 40/84/40 37/61/37 29/64/29 32/85/32 
f 39/77/39 34/69/34 41/71/45 
f 33/70/33 36/72/36 41/71/46 
f 35/73/35 38/74/38 41/71/47 
f 37/75/37 40/86/40 41/71/48 
f 3/3/3 2/2/2 16/87/16 15/88/15 
f 1/1/1 4/4/4 10/89/10 9/90/9 
# 35 polygons - 8 triangles

#
# object Pillar_obelisk_LOD
#

v  -24.2500 0.0000 -24.2500
v  24.2500 0.0000 -24.2500
v  24.2500 0.0000 24.2500
v  -24.2500 0.0000 24.2500
v  24.2500 10.0000 24.2500
v  -24.2500 10.0000 24.2500
v  24.2500 10.0000 -24.2500
v  -24.2500 10.0000 -24.2500
v  9.2500 25.0000 9.2500
v  -9.2500 25.0000 9.2500
v  9.2500 25.0000 -9.2500
v  -9.2500 25.0000 -9.2500
v  17.7210 40.0000 17.7210
v  -17.7210 40.0000 17.7210
v  17.7210 40.0000 -17.7210
v  -17.7210 40.0000 -17.7210
v  9.1830 250.0000 9.1830
v  -9.1830 250.0000 9.1830
v  9.1830 250.0000 -9.1830
v  -9.1830 250.0000 -9.1830
v  0.0000 270.9756 -0.0000
# 21 vertices

vn -0.5774 -0.5774 -0.5774
vn 0.5774 -0.5774 -0.5774
vn 0.5774 -0.5774 0.5774
vn -0.5774 -0.5774 0.5774
vn 0.6507 0.3914 0.6507
vn -0.6507 0.3914 0.6507
vn 0.6507 0.3914 -0.6507
vn -0.6507 0.3914 -0.6507
vn 0.6885 0.2282 0.6885
vn -0.6885 0.2282 0.6885
vn 0.6885 0.2282 -0.6885
vn -0.6885 0.2282 -0.6885
vn 0.6818 -0.2650 0.6818
vn -0.6818 -0.2650 0.6818
vn 0.6818 -0.2650 -0.6818
vn -0.6818 -0.2650 -0.6818
vn 0.6802 0.2733 0.6802
vn -0.6802 0.2733 0.6802
vn 0.6802 0.2733 -0.6802
vn -0.6802 0.2733 -0.6802
vn 0.0000 0.4010 0.9161
vn 0.9161 0.4010 -0.0000
vn 0.0000 0.4010 -0.9161
vn -0.9161 0.4010 -0.0000
# 24 vertex normals

vt 0.7833 0.0026 0.0000
vt 0.9533 0.0033 0.0000
vt 0.9526 0.1733 0.0000
vt 0.7826 0.1725 0.0000
vt 0.8316 0.7736 0.0000
vt 0.6594 0.7736 0.0000
vt 0.6594 0.7385 0.0000
vt 0.8316 0.7385 0.0000
vt 0.4873 0.7735 0.0000
vt 0.4873 0.7385 0.0000
vt 0.3151 0.7735 0.0000
vt 0.3151 0.7385 0.0000
vt 1.0000 0.7736 0.0000
vt 1.0000 0.7385 0.0000
vt 0.0011 0.6377 0.0000
vt 0.1367 0.5338 0.0000
vt 0.1402 0.6248 0.0000
vt 0.0880 0.6647 0.0000
vt 0.2798 0.6271 0.0000
vt 0.1952 0.6607 0.0000
vt 0.2396 0.7930 0.0000
vt 0.1797 0.7244 0.0000
vt 0.0508 0.7979 0.0000
vt 0.1053 0.7249 0.0000
vt 0.5132 0.6334 0.0000
vt 0.4554 0.6010 0.0000
vt 0.4589 0.5338 0.0000
vt 0.5686 0.5950 0.0000
vt 0.3945 0.6271 0.0000
vt 0.3435 0.5834 0.0000
vt 0.3780 0.6913 0.0000
vt 0.3122 0.7050 0.0000
vt 0.5241 0.6953 0.0000
vt 0.5882 0.7158 0.0000
vt 0.0041 0.3815 0.0000
vt 0.0000 0.2552 0.0000
vt 0.7372 0.2618 0.0000
vt 0.7393 0.3283 0.0000
vt 0.0063 0.1290 0.0000
vt 0.7405 0.1954 0.0000
vt 0.0228 0.0037 0.0000
vt 0.7492 0.1294 0.0000
vt 0.0177 0.5034 0.0000
vt 0.7462 0.3908 0.0000
vt 0.1520 0.8871 0.0000
vt 0.0931 0.9168 0.0000
vt 0.0865 0.8307 0.0000
vt 0.0303 0.8964 0.0000
vt 0.0003 0.8377 0.0000
vt 0.1730 0.8281 0.0000
# 50 texture coords

g Pillar_obelisk_LOD
s 1
f 42/91/49 43/92/50 44/93/51 45/94/52 
f 45/95/52 44/96/51 46/97/53 47/98/54 
f 44/96/51 43/99/50 48/100/55 46/97/53 
f 43/99/50 42/101/49 49/102/56 48/100/55 
f 42/103/49 45/95/52 47/98/54 49/104/56 
f 47/105/54 46/106/53 50/107/57 51/108/58 
f 46/106/53 48/109/55 52/110/59 50/107/57 
f 48/109/55 49/111/56 53/112/60 52/110/59 
f 49/113/56 47/105/54 51/108/58 53/114/60 
f 51/115/58 50/116/57 54/117/61 55/118/62 
f 50/116/57 52/119/59 56/120/63 54/117/61 
f 52/119/59 53/121/60 57/122/64 56/120/63 
f 53/123/60 51/115/58 55/118/62 57/124/64 
f 55/125/62 54/126/61 58/127/65 59/128/66 
f 54/126/61 56/129/63 60/130/67 58/127/65 
f 56/129/63 57/131/64 61/132/68 60/130/67 
f 57/133/64 55/125/62 59/128/66 61/134/68 
f 59/135/66 58/136/65 62/137/69 
f 58/136/65 60/138/67 62/137/70 
f 60/138/67 61/139/68 62/137/71 
f 61/140/68 59/135/66 62/137/72 
# 17 polygons - 4 triangles

#
# object Pillar_obelisk_collider
#

v  -25.5000 0.0000 25.5000
v  -25.5000 0.0000 -25.5000
v  25.5000 0.0000 -25.5000
v  25.5000 0.0000 25.5000
v  -11.4415 272.7200 11.4415
v  11.4415 272.7200 11.4415
v  11.4415 272.7200 -11.4415
v  -11.4415 272.7200 -11.4415
# 8 vertices

vn 0.0000 -1.0000 -0.0000
vn 0.0000 1.0000 -0.0000
vn 0.0000 0.0515 0.9987
vn 0.9987 0.0515 -0.0000
vn 0.0000 0.0515 -0.9987
vn -0.9987 0.0515 -0.0000
# 6 vertex normals

vt 1.0000 0.0000 0.0000
vt 1.0000 1.0000 0.0000
vt 0.0000 1.0000 0.0000
vt 0.0000 0.0000 0.0000
# 4 texture coords

g Pillar_obelisk_collider
s 2
f 63/141/73 64/142/73 65/143/73 66/144/73 
s 4
f 67/144/74 68/141/74 69/142/74 70/143/74 
s 8
f 63/144/75 66/141/75 68/142/75 67/143/75 
s 16
f 66/144/76 65/141/76 69/142/76 68/143/76 
s 32
f 65/144/77 64/141/77 70/142/77 69/143/77 
s 64
f 64/144/78 63/141/78 67/142/78 70/143/78 
# 6 polygons

